<?xml version="1.0" encoding="UTF-8" standalone="no"?><!DOCTYPE svg PUBLIC "-//W3C//DTD SVG 1.1//EN" "http://www.w3.org/Graphics/SVG/1.1/DTD/svg11.dtd"><svg width="100%" height="100%" viewBox="0 0 312 312" version="1.1" xmlns="http://www.w3.org/2000/svg" xmlns:xlink="http://www.w3.org/1999/xlink" xml:space="preserve" xmlns:serif="http://www.serif.com/" style="fill-rule:evenodd;clip-rule:evenodd;stroke-linejoin:round;stroke-miterlimit:2;"><g><path d="M311.658,155.829c0,-86.062 -69.766,-155.829 -155.829,-155.829c-86.062,0 -155.829,69.767 -155.829,155.829c0,77.779 56.983,142.246 131.479,153.934l0,-108.888l-39.562,0l-0,-45.046l39.562,0l0,-34.329c0,-39.058 23.267,-60.629 58.863,-60.629c17.045,-0 34.879,3.042 34.879,3.042l-0,38.35l-19.65,-0c-19.359,-0 -25.392,12.012 -25.392,24.337l0,29.229l43.217,0l-6.909,45.046l-36.308,0l0,108.888c74.496,-11.688 131.479,-76.155 131.479,-153.934" style="fill:#3c5a9a;fill-rule:nonzero;"/><path d="M216.487,200.873l6.908,-45.046l-43.216,0l-0,-29.229c-0,-12.325 6.037,-24.337 25.391,-24.337l19.65,-0l0,-38.346c0,-0 -17.829,-3.046 -34.879,-3.046c-35.596,0 -58.858,21.575 -58.858,60.629l-0,34.329l-39.567,0l0,45.046l39.567,0l-0,108.892c7.933,1.246 16.062,1.892 24.346,1.892c8.283,-0 16.416,-0.646 24.35,-1.892l-0,-108.892l36.308,0Z" style="fill:#fff;fill-rule:nonzero;"/></g></svg>