<?xml version="1.0" encoding="UTF-8" standalone="no"?><!DOCTYPE svg PUBLIC "-//W3C//DTD SVG 1.1//EN" "http://www.w3.org/Graphics/SVG/1.1/DTD/svg11.dtd"><svg width="100%" height="100%" viewBox="0 0 148 206" version="1.1" xmlns="http://www.w3.org/2000/svg" xmlns:xlink="http://www.w3.org/1999/xlink" xml:space="preserve" xmlns:serif="http://www.serif.com/" style="fill-rule:evenodd;clip-rule:evenodd;stroke-linejoin:round;stroke-miterlimit:2;"><g><path d="M28.633,1.657l-12.496,6.959c0,-0 -10.346,4.416 -14.15,18.729c-3.8,14.312 -4.725,53.708 21.575,97.037c26.3,43.325 51.45,72.763 81.654,80.788c0,-0 11.346,3.017 22.792,-2.754l14.138,-7.625c-0,-0 9.979,-5.792 3.25,-16.388l-26.275,-44.787c-0,-0 -5.521,-11.013 -15.159,-5.129l-20.487,12.179c-0,-0 -17.492,13.337 -38.984,-23.204c0,-0 -16.208,-27.434 3.067,-39.196l19.963,-11.584c-0,0 9.025,-4.945 3.916,-14.745l-26.529,-45.221c0,-0 -4.487,-10.738 -16.275,-5.059" style="fill-rule:nonzero;"/></g></svg>