<?xml version="1.0" encoding="UTF-8" standalone="no"?><!DOCTYPE svg PUBLIC "-//W3C//DTD SVG 1.1//EN" "http://www.w3.org/Graphics/SVG/1.1/DTD/svg11.dtd"><svg width="100%" height="100%" viewBox="0 0 311 311" version="1.1" xmlns="http://www.w3.org/2000/svg" xmlns:xlink="http://www.w3.org/1999/xlink" xml:space="preserve" xmlns:serif="http://www.serif.com/" style="fill-rule:evenodd;clip-rule:evenodd;stroke-linejoin:round;stroke-miterlimit:2;"><g><path d="M310.417,155.208c-0,85.721 -69.488,155.209 -155.209,155.209c-85.721,-0 -155.208,-69.488 -155.208,-155.209c-0,-85.721 69.487,-155.208 155.208,-155.208c85.721,-0 155.209,69.487 155.209,155.208" style="fill:#fff;fill-rule:nonzero;"/><path d="M192.219,55.185c-0.008,2.675 0.338,5.546 0.775,8.171l-25.333,-0l-0,126.129c-0,5.813 -0.596,10.992 -1.788,15.533c-10.316,22.738 -39.525,19.767 -47.596,4.163c12.017,7.525 31.775,5.525 39.884,-12.333c1.183,-4.534 1.779,-9.721 1.779,-15.534l-0,-126.129l32.279,0Zm17.233,38.142c6.53,5.221 15.534,9.066 27.946,9.804l0,7.246c-13.733,-2.538 -22.441,-9.363 -27.946,-17.05m-115.908,138.533c-41.333,-35.867 -14.604,-115.725 48.942,-105.675l-0,7.396c-53.667,-2.496 -77.288,61.517 -48.942,98.279" style="fill:#00f7ef;"/><path d="M199.942,63.355l-0,0.162c0.008,2.921 0.866,45.146 45.179,47.783c-0,39.284 0.021,0 0.021,32.625c-3.33,0.196 -29.171,-1.67 -45.25,-16.012l-0.05,63.517c0.4,28.762 -15.613,56.966 -45.588,62.654c-8.396,1.587 -15.958,1.766 -28.654,-1.004c-73.125,-21.875 -48.825,-130.334 24.6,-118.725c-0,35.012 0.021,-0.009 0.021,35.012c-30.334,-4.462 -40.479,20.771 -32.421,38.842c7.337,16.446 37.537,20.012 48.071,-3.192c1.196,-4.542 1.791,-9.721 1.791,-15.533l0,-126.129l32.28,-0Z"/><path d="M199.942,63.355l-0,0.162c-0,1.717 0.308,16.963 9.508,29.813c-11.088,-8.875 -15.046,-21.696 -16.454,-29.975l6.946,-0Zm37.458,47.02c2.412,0.446 4.987,0.763 7.721,0.925c-0,39.284 0.021,0 0.021,32.625c-3.33,0.196 -29.171,-1.67 -45.25,-16.012l-0.05,63.517c0.4,28.762 -15.613,56.966 -45.588,62.654c-8.396,1.587 -15.958,1.766 -28.654,-1.004c-14.288,-4.275 -24.842,-11.867 -32.058,-21.221c6.429,5.587 14.5,10.108 24.35,13.062c12.679,2.763 20.241,2.584 28.641,0.992c29.975,-5.683 45.984,-33.888 45.596,-62.642l0.042,-63.525c16.079,14.342 41.916,16.217 45.258,16.009c0,-30.3 -0.029,1.412 -0.029,-25.38m-94.913,23.205c2.505,0.108 5.08,0.358 7.713,0.775c-0,35.012 0.021,-0.009 0.021,35.012c-30.334,-4.462 -40.479,20.771 -32.421,38.842c0.15,0.325 0.308,0.654 0.475,0.971c-3.604,-2.255 -6.508,-5.355 -8.196,-9.142c-8.05,-18.067 2.088,-43.3 32.417,-38.838c-0,-32.091 -0.009,-5.387 -0.009,-27.62" style="fill:#ff004f;"/></g></svg>