<?xml version="1.0" encoding="UTF-8" standalone="no"?><!DOCTYPE svg PUBLIC "-//W3C//DTD SVG 1.1//EN" "http://www.w3.org/Graphics/SVG/1.1/DTD/svg11.dtd"><svg width="100%" height="100%" viewBox="0 0 309 309" version="1.1" xmlns="http://www.w3.org/2000/svg" xmlns:xlink="http://www.w3.org/1999/xlink" xml:space="preserve" xmlns:serif="http://www.serif.com/" style="fill-rule:evenodd;clip-rule:evenodd;stroke-linejoin:round;stroke-miterlimit:2;"><g><path d="M308.333,154.167c0,85.145 -69.025,154.166 -154.166,154.166c-85.146,0 -154.167,-69.021 -154.167,-154.166c-0,-85.146 69.021,-154.167 154.167,-154.167c85.141,0 154.166,69.021 154.166,154.167" style="fill:#fff;fill-rule:nonzero;"/><path d="M133.61,185l0,-61.666l53.404,30.833l-53.404,30.833Zm119.038,-80.308c-2.363,-8.846 -9.33,-15.808 -18.171,-18.175c-16.034,-4.296 -80.313,-4.296 -80.313,-4.296c0,0 -64.279,0 -80.308,4.296c-8.846,2.367 -15.808,9.329 -18.175,18.175c-4.292,16.029 -4.292,49.475 -4.292,49.475c0,0 0,33.446 4.292,49.475c2.367,8.846 9.329,15.808 18.175,18.175c16.029,4.296 80.308,4.296 80.308,4.296c0,-0 64.279,-0 80.313,-4.296c8.841,-2.367 15.808,-9.329 18.171,-18.175c4.295,-16.029 4.295,-49.475 4.295,-49.475c0,0 0,-33.446 -4.295,-49.475" style="fill:#ee2e24;fill-rule:nonzero;"/></g></svg>